<svg viewBox="0 0 128 128" xmlns="http://www.w3.org/2000/svg" role="img" aria-label="ForgedByAtlas">
  <defs>
    <linearGradient id="fbaGrad" x1="0%" y1="0%" x2="100%" y2="100%">
      <stop offset="0%" stop-color="#2563eb"/>
      <stop offset="100%" stop-color="#7c3aed"/>
    </linearGradient>
  </defs>
  <rect width="128" height="128" rx="28" fill="url(#fbaGrad)"/>
  <path transform="translate(1.6,1.6) scale(5.2)" fill="#FFFFFF" d="M12,2 L9.3,22 L10.3,22 L10.9,11.2 L13.1,11.2 L13.7,22 L14.7,22 L12,2 Z M11.05,15.7 L12.95,15.7 L12.95,16.1 L12.1,16.1 L12.1,22 L11.9,22 L11.9,16.1 L11.05,16.1 Z"/>
  <path transform="translate(14.45,76.43) scale(0.3918)" fill="none" stroke="#FFFFFF" stroke-width="7.7" stroke-linejoin="round" stroke-linecap="round" d="M 74.0,1.5 C 74.0,2.7 72.4,3.0 66.0,3.0 C 58.1,3.0 58.0,3.0 58.0,5.5 C 58.0,8.0 58.0,8.0 28.9,8.0 C -3.9,8.0 -4.3,8.3 12.6,20.0 C 29.6,31.7 48.6,38.4 78.2,43.1 C 102.2,46.8 102.7,72.5 79.1,86.0 C 73.0,89.5 73.0,89.5 73.0,95.2 C 73.0,101.0 73.0,101.0 84.5,101.0 C 94.6,101.0 96.4,100.7 98.8,99.0 C 106.8,93.1 155.0,94.1 155.0,100.1 C 155.0,100.6 160.0,101.0 166.0,101.0 C 177.0,101.0 177.0,101.0 177.0,95.2 C 176.9,89.5 176.9,89.5 170.4,85.5 C 152.5,74.5 147.1,61.8 154.5,48.1 C 160.0,38.0 177.5,26.1 191.5,22.9 C 194.3,22.2 197.1,21.6 197.8,21.4 C 198.6,21.2 199.0,18.1 199.0,10.5 C 199.0,0.0 199.0,0.0 136.5,0.0 C 81.6,0.0 74.0,0.2 74.0,1.5"/>
</svg>
